<?xml version="1.0" standalone="no"?><!DOCTYPE svg PUBLIC "-//W3C//DTD SVG 1.1//EN" "http://www.w3.org/Graphics/SVG/1.1/DTD/svg11.dtd"><svg class="icon" width="200px" height="200.00px" viewBox="0 0 1024 1024" version="1.1" xmlns="http://www.w3.org/2000/svg"><path fill="#ffffff" d="M832 401.39H718V270c0-113.77-92.23-206-206-206s-206 92.23-206 206v131.39H192a64 64 0 0 0-64 64V896a64 64 0 0 0 64 64h640a64 64 0 0 0 64-64V465.39a64 64 0 0 0-64-64zM386 270a126 126 0 0 1 252 0v131.39H386v-130.2V270z m430 610H208V481.39h608z"  /></svg>